<?xml version="1.0" standalone="no"?>
<!DOCTYPE svg PUBLIC "-//W3C//DTD SVG 20010904//EN"
 "http://www.w3.org/TR/2001/REC-SVG-20010904/DTD/svg10.dtd">
<svg version="1.0" xmlns="http://www.w3.org/2000/svg"
 width="429.000000pt" height="610.000000pt" viewBox="0 0 429.000000 610.000000"
 preserveAspectRatio="xMidYMid meet">

<g transform="translate(0.000000,610.000000) scale(0.100000,-0.100000)"
fill="#ffffff" stroke="none">
<path d="M2133 6078 c-14 -18 -2111 -3691 -2119 -3711 -6 -16 143 -17 2131
-17 l2136 0 -26 48 c-14 26 -85 151 -158 277 l-132 230 -1500 0 c-995 0 -1499
3 -1498 10 1 6 177 316 390 690 214 374 476 834 583 1022 107 189 198 342 202
340 8 -2 538 -928 538 -939 0 -5 -121 -8 -269 -8 l-270 0 -155 -272 -156 -273
449 -3 c247 -1 655 -1 905 0 l456 3 -744 1303 c-409 717 -746 1305 -748 1308
-3 2 -10 -1 -15 -8z"/>
<path d="M2775 2255 c-22 -8 -55 -30 -72 -49 -28 -31 -33 -43 -33 -87 0 -66
27 -111 84 -138 54 -27 108 -27 163 0 129 62 118 216 -19 273 -45 19 -71 19
-123 1z"/>
<path d="M530 1606 l0 -526 28 -7 c15 -4 144 -7 287 -7 219 -1 271 2 330 17
153 39 238 95 284 189 51 102 41 225 -25 298 -32 36 -46 44 -119 70 l-29 11
39 18 c46 21 89 64 104 104 6 16 11 58 11 94 0 114 -61 185 -201 234 -61 22
-81 23 -386 27 l-323 4 0 -526z m523 313 c43 -12 77 -56 77 -101 0 -37 -44
-85 -88 -98 -20 -5 -67 -10 -104 -10 l-68 0 0 110 0 110 73 0 c39 0 89 -5 110
-11z m46 -395 c63 -37 78 -129 30 -180 -30 -32 -78 -44 -176 -44 l-83 0 0 126
0 127 99 -6 c70 -3 109 -10 130 -23z"/>
<path d="M1826 2113 c-4 -16 -246 -892 -274 -996 l-11 -37 172 2 171 3 20 95
21 95 137 3 c136 3 138 2 143 -20 8 -35 35 -169 35 -174 0 -2 80 -4 179 -4
l178 0 -93 323 c-51 177 -119 412 -151 522 l-59 200 -231 3 c-214 2 -232 1
-237 -15z m289 -416 c25 -114 45 -212 45 -217 0 -6 -42 -10 -100 -10 -99 0
-100 0 -95 23 18 76 95 421 96 426 2 14 11 -24 54 -222z"/>
<path d="M3362 1985 l-72 -145 -60 0 -61 0 3 -92 3 -93 48 -3 47 -3 0 -173 c0
-192 10 -246 59 -313 17 -23 50 -50 78 -64 42 -21 62 -24 158 -24 92 1 118 4
159 23 46 21 48 24 42 53 -3 17 -6 64 -6 104 l0 73 -36 -10 c-20 -5 -52 -7
-70 -3 -57 10 -64 32 -64 192 l0 143 85 0 85 0 0 95 0 95 -85 0 -85 0 0 145 0
145 -78 0 -77 0 -73 -145z"/>
<path d="M2673 1563 c4 -233 7 -286 22 -328 25 -67 96 -137 157 -154 64 -18
201 -10 251 14 35 18 37 21 37 65 0 26 -3 74 -6 108 -7 59 -7 60 -31 51 -37
-14 -61 -11 -83 11 -19 19 -20 33 -20 265 l0 245 -166 0 -166 0 5 -277z"/>
</g>
</svg>
